<svg width="30" height="30" viewBox="0 0 30 30" fill="none" xmlns="http://www.w3.org/2000/svg">
<path fill-rule="evenodd" clip-rule="evenodd" d="M6.14625 7.50387C6.30992 7.49017 6.47469 7.50886 6.63114 7.55887C6.78758 7.60889 6.93264 7.68924 7.05802 7.79535C7.18339 7.90145 7.28663 8.03122 7.36182 8.17725C7.43701 8.32327 7.48269 8.48268 7.49625 8.64637L8.5575 21.4564C8.60925 22.0815 8.89413 22.6644 9.35561 23.0893C9.81709 23.5142 10.4214 23.7501 11.0487 23.7501H18.9512C19.5785 23.7501 20.1829 23.5142 20.6444 23.0893C21.1059 22.6644 21.3907 22.0815 21.4425 21.4564L22.505 8.64637C22.5356 8.31842 22.6944 8.01581 22.9469 7.8043C23.1994 7.59279 23.5251 7.48947 23.8533 7.51681C24.1816 7.54415 24.4858 7.69993 24.6998 7.9503C24.9138 8.20066 25.0203 8.52538 24.9962 8.85387L23.9337 21.6626C23.8303 22.9127 23.2607 24.0783 22.338 24.928C21.4153 25.7778 20.2069 26.2497 18.9525 26.2501H11.05C9.79518 26.2503 8.58617 25.7787 7.66294 24.9289C6.73971 24.0791 6.16977 22.9132 6.06625 21.6626L5.00375 8.85387C4.99005 8.69019 5.00874 8.52542 5.05875 8.36898C5.10876 8.21253 5.18912 8.06747 5.29522 7.9421C5.40133 7.81672 5.5311 7.71349 5.67712 7.63829C5.82315 7.5631 5.98256 7.51742 6.14625 7.50387Z" fill="currentColor"/>
<path fill-rule="evenodd" clip-rule="evenodd" d="M3.75 8.75C3.75 8.41848 3.8817 8.10054 4.11612 7.86612C4.35054 7.6317 4.66848 7.5 5 7.5H25C25.3315 7.5 25.6495 7.6317 25.8839 7.86612C26.1183 8.10054 26.25 8.41848 26.25 8.75C26.25 9.08152 26.1183 9.39946 25.8839 9.63388C25.6495 9.8683 25.3315 10 25 10H5C4.66848 10 4.35054 9.8683 4.11612 9.63388C3.8817 9.39946 3.75 9.08152 3.75 8.75ZM12.5 11.25C12.8315 11.25 13.1495 11.3817 13.3839 11.6161C13.6183 11.8505 13.75 12.1685 13.75 12.5V20C13.75 20.3315 13.6183 20.6495 13.3839 20.8839C13.1495 21.1183 12.8315 21.25 12.5 21.25C12.1685 21.25 11.8505 21.1183 11.6161 20.8839C11.3817 20.6495 11.25 20.3315 11.25 20V12.5C11.25 12.1685 11.3817 11.8505 11.6161 11.6161C11.8505 11.3817 12.1685 11.25 12.5 11.25ZM17.5 11.25C17.8315 11.25 18.1495 11.3817 18.3839 11.6161C18.6183 11.8505 18.75 12.1685 18.75 12.5V17.5C18.75 17.8315 18.6183 18.1495 18.3839 18.3839C18.1495 18.6183 17.8315 18.75 17.5 18.75C17.1685 18.75 16.8505 18.6183 16.6161 18.3839C16.3817 18.1495 16.25 17.8315 16.25 17.5V12.5C16.25 12.1685 16.3817 11.8505 16.6161 11.6161C16.8505 11.3817 17.1685 11.25 17.5 11.25Z" fill="currentColor"/>
<path fill-rule="evenodd" clip-rule="evenodd" d="M13.0513 6.25C12.7891 6.2502 12.5335 6.33287 12.3208 6.48631C12.1082 6.63975 11.9492 6.8562 11.8663 7.105L11.1863 9.145C11.0815 9.45961 10.8561 9.71973 10.5595 9.86811C10.263 10.0165 9.91966 10.041 9.60504 9.93625C9.29043 9.83149 9.03032 9.60604 8.88193 9.3095C8.73354 9.01296 8.70903 8.66961 8.81379 8.355L9.49379 6.31375C9.74275 5.56716 10.2203 4.91783 10.8588 4.4577C11.4972 3.99757 12.2643 3.74999 13.0513 3.75H16.9475C17.7345 3.74999 18.5016 3.99757 19.1401 4.4577C19.7786 4.91783 20.2561 5.56716 20.505 6.31375L21.1863 8.355C21.2382 8.51078 21.2588 8.67525 21.2472 8.83903C21.2355 9.0028 21.1916 9.16267 21.1182 9.3095C21.0447 9.45633 20.943 9.58725 20.8189 9.69479C20.6949 9.80233 20.5508 9.88438 20.395 9.93625C20.2393 9.98812 20.0748 10.0088 19.911 9.99711C19.7472 9.98542 19.5874 9.94159 19.4405 9.86811C19.144 9.71973 18.9186 9.45961 18.8138 9.145L18.1338 7.105C18.051 6.8564 17.8922 6.6401 17.6797 6.48668C17.4673 6.33325 17.2121 6.25046 16.95 6.25H13.0538H13.0513Z" fill="currentColor"/>
</svg>
