<svg width="24" height="24" viewBox="0 0 24 24" fill="none" xmlns="http://www.w3.org/2000/svg">
<path d="M15.7935 2.64576C16.1586 2.28065 16.592 1.99103 17.0691 1.79344C17.5461 1.59584 18.0574 1.49414 18.5737 1.49414C19.0901 1.49414 19.6013 1.59584 20.0784 1.79344C20.5554 1.99103 20.9889 2.28065 21.354 2.64576C21.7191 3.01087 22.0087 3.44431 22.2063 3.92135C22.4039 4.39838 22.5056 4.90967 22.5056 5.42601C22.5056 5.94235 22.4039 6.45363 22.2063 6.93067C22.0087 7.4077 21.7191 7.84115 21.354 8.20626L20.1855 9.37476L14.625 3.81426L15.7935 2.64576ZM13.5645 4.87476L3.98547 14.4538C3.42496 15.0151 3.0251 15.7165 2.82747 16.4848L1.52247 21.5638C1.49011 21.6901 1.49127 21.8228 1.52583 21.9485C1.5604 22.0743 1.62717 22.1889 1.71956 22.281C1.81196 22.3731 1.92677 22.4395 2.05267 22.4737C2.17857 22.5078 2.3112 22.5085 2.43747 22.4758L7.51497 21.1723C8.28354 20.9753 8.98503 20.5754 9.54597 20.0143L19.125 10.4353L13.5645 4.87476Z" fill="currentColor"/>
</svg>
