<svg width="48" height="48" viewBox="0 0 48 48" fill="none" xmlns="http://www.w3.org/2000/svg">
<path d="M4.5 11.25C4.5 9.45979 5.21116 7.7429 6.47703 6.47703C7.7429 5.21116 9.45979 4.5 11.25 4.5H36.75C38.5402 4.5 40.2571 5.21116 41.523 6.47703C42.7888 7.7429 43.5 9.45979 43.5 11.25V24.438C42.3899 23.4434 41.1228 22.6396 39.75 22.059V11.25C39.75 10.4544 39.4339 9.69129 38.8713 9.12868C38.3087 8.56607 37.5456 8.25 36.75 8.25H11.25C10.4544 8.25 9.69129 8.56607 9.12868 9.12868C8.56607 9.69129 8.25 10.4544 8.25 11.25V36.75C8.25 37.5456 8.56607 38.3087 9.12868 38.8713C9.69129 39.4339 10.4544 39.75 11.25 39.75H22.059C22.6396 41.1228 23.4434 42.3899 24.438 43.5H11.25C9.45979 43.5 7.7429 42.7888 6.47703 41.523C5.21116 40.2571 4.5 38.5402 4.5 36.75V11.25ZM34.5 45.75C37.4837 45.75 40.3452 44.5647 42.455 42.455C44.5647 40.3452 45.75 37.4837 45.75 34.5C45.75 31.5163 44.5647 28.6548 42.455 26.545C40.3452 24.4353 37.4837 23.25 34.5 23.25C31.5163 23.25 28.6548 24.4353 26.545 26.545C24.4353 28.6548 23.25 31.5163 23.25 34.5C23.25 37.4837 24.4353 40.3452 26.545 42.455C28.6548 44.5647 31.5163 45.75 34.5 45.75ZM36 27.375V33H41.625C41.9234 33 42.2095 33.1185 42.4205 33.3295C42.6315 33.5405 42.75 33.8266 42.75 34.125C42.75 34.4234 42.6315 34.7095 42.4205 34.9205C42.2095 35.1315 41.9234 35.25 41.625 35.25H36V40.875C36 41.1734 35.8815 41.4595 35.6705 41.6705C35.4595 41.8815 35.1734 42 34.875 42C34.5766 42 34.2905 41.8815 34.0795 41.6705C33.8685 41.4595 33.75 41.1734 33.75 40.875V35.25H28.125C27.8266 35.25 27.5405 35.1315 27.3295 34.9205C27.1185 34.7095 27 34.4234 27 34.125C27 33.8266 27.1185 33.5405 27.3295 33.3295C27.5405 33.1185 27.8266 33 28.125 33H33.75V27.375C33.75 27.0766 33.8685 26.7905 34.0795 26.5795C34.2905 26.3685 34.5766 26.25 34.875 26.25C35.1734 26.25 35.4595 26.3685 35.6705 26.5795C35.8815 26.7905 36 27.0766 36 27.375Z" fill="currentColor"/>
</svg>
