<svg width="24" height="24" viewBox="0 0 24 24" fill="none" xmlns="http://www.w3.org/2000/svg">
<g clip-path="url(#clip0_48_134)">
<path fill-rule="evenodd" clip-rule="evenodd" d="M12.707 15.7069C12.5194 15.8943 12.2651 15.9996 12 15.9996C11.7348 15.9996 11.4805 15.8943 11.293 15.7069L5.63598 10.0499C5.54047 9.95761 5.46428 9.84726 5.41188 9.72526C5.35947 9.60326 5.33188 9.47204 5.33073 9.33926C5.32957 9.20648 5.35487 9.0748 5.40516 8.9519C5.45544 8.829 5.52969 8.71735 5.62358 8.62346C5.71747 8.52957 5.82913 8.45531 5.95202 8.40503C6.07492 8.35475 6.2066 8.32945 6.33938 8.3306C6.47216 8.33176 6.60338 8.35934 6.72538 8.41175C6.84739 8.46416 6.95773 8.54034 7.04998 8.63585L12 13.5859L16.95 8.63585C17.1386 8.4537 17.3912 8.3529 17.6534 8.35518C17.9156 8.35746 18.1664 8.46263 18.3518 8.64804C18.5372 8.83344 18.6424 9.08426 18.6447 9.34645C18.6469 9.60865 18.5461 9.86125 18.364 10.0499L12.707 15.7069Z" fill="currentColor"/>
</g>
<defs>
<clipPath id="clip0_48_134">
<rect width="24" height="24" fill="white"/>
</clipPath>
</defs>
</svg>
