<svg width="48" height="48" viewBox="0 0 48 48" fill="none" xmlns="http://www.w3.org/2000/svg">
<path fill-rule="evenodd" clip-rule="evenodd" d="M0 11.25C0 10.6533 0.237053 10.081 0.65901 9.65901C1.08097 9.23705 1.65326 9 2.25 9H45.75C46.3467 9 46.919 9.23705 47.341 9.65901C47.7629 10.081 48 10.6533 48 11.25C48 11.8467 47.7629 12.419 47.341 12.841C46.919 13.2629 46.3467 13.5 45.75 13.5H2.25C1.65326 13.5 1.08097 13.2629 0.65901 12.841C0.237053 12.419 0 11.8467 0 11.25ZM0 24C0 23.4033 0.237053 22.831 0.65901 22.409C1.08097 21.9871 1.65326 21.75 2.25 21.75H45.75C46.3467 21.75 46.919 21.9871 47.341 22.409C47.7629 22.831 48 23.4033 48 24C48 24.5967 47.7629 25.169 47.341 25.591C46.919 26.0129 46.3467 26.25 45.75 26.25H2.25C1.65326 26.25 1.08097 26.0129 0.65901 25.591C0.237053 25.169 0 24.5967 0 24ZM2.25 34.5C1.65326 34.5 1.08097 34.7371 0.65901 35.159C0.237053 35.581 0 36.1533 0 36.75C0 37.3467 0.237053 37.919 0.65901 38.341C1.08097 38.7629 1.65326 39 2.25 39H45.75C46.3467 39 46.919 38.7629 47.341 38.341C47.7629 37.919 48 37.3467 48 36.75C48 36.1533 47.7629 35.581 47.341 35.159C46.919 34.7371 46.3467 34.5 45.75 34.5H2.25Z" fill="#4E4E4E"/>
</svg>
